# xmcd CD database file
#
# Track frame offsets:
#	150
#	17582
#	28810
#	46005
#	67825
#	91137
#	112722
#	131370
#	154855
#	176772
#
# Disc length: 2641 seconds
#
# Revision: 1
# Processed by: cddbd v1.5PL3 Copyright (c) Steve Scherf et al.
# Submitted via: CDex 1.50
#
DISCID=6c0a4f0a
DTITLE=飯島真理 - 飯島真理／ＣＤファイル
DYEAR=1989
DGENRE=Pop
TTITLE0=夢色のスプーン
TTITLE1=リンゴの森の子猫たち
TTITLE2=きっと言える
TTITLE3=ひみつの扉
TTITLE4=愛・おぼえていますか
TTITLE5=天使の絵の具
TTITLE6=1グラムの幸福
TTITLE7=いつものパーティー
TTITLE8=セシールの雨傘
TTITLE9=フォトグラフ
EXTD=YEAR: 1989
EXTT0=
EXTT1=
EXTT2=
EXTT3=
EXTT4=
EXTT5=
EXTT6=
EXTT7=
EXTT8=
EXTT9=
PLAYORDER=
